<svg xmlns="http://www.w3.org/2000/svg" version="1.1" xmlns:xlink="http://www.w3.org/1999/xlink" xmlns:svgjs="http://svgjs.dev/svgjs" width="128" height="128" viewBox="0 0 128 128"><g transform="matrix(0.8046875,0,0,0.8046875,12.333870967741937,12.333870967741937)"><svg viewBox="0 0 155 155" data-background-color="#444444" preserveAspectRatio="xMidYMid meet" height="128" width="128" xmlns="http://www.w3.org/2000/svg" xmlns:xlink="http://www.w3.org/1999/xlink"><g id="tight-bounds" transform="matrix(1,0,0,1,0.25,0.25)"><svg viewBox="0 0 154.5 154.5" height="154.5" width="154.5"><g><svg></svg></g><g><svg viewBox="0 0 154.5 154.5" height="154.5" width="154.5"><g transform="matrix(1,0,0,1,59.016757278,59.016757278)"><svg viewBox="0 0 36.46648544399999 36.46648544399999" height="36.46648544399999" width="36.46648544399999"><g><svg viewBox="0 0 36.46648544399999 36.46648544399999" height="36.46648544399999" width="36.46648544399999"><g><svg viewBox="0 0 36.46648544399999 36.46648544399999" height="36.46648544399999" width="36.46648544399999"><g id="textblocktransform"><svg viewBox="0 0 36.46648544399999 36.46648544399999" height="36.46648544399999" width="36.46648544399999" id="textblock"><g><svg viewBox="0 0 36.46648544399999 36.46648544399999" height="36.46648544399999" width="36.46648544399999"><g><svg viewBox="0 0 36.46648544399999 36.46648544399999" height="36.46648544399999" width="36.46648544399999"><g><svg xmlns="http://www.w3.org/2000/svg" xmlns:xlink="http://www.w3.org/1999/xlink" version="1.1" x="0" y="0" viewBox="0.5000000000000002 0.5 71 71" enable-background="new 0 0 72 72" xml:space="preserve" height="36.46648544399999" width="36.46648544399999" class="icon-icon-0" data-fill-palette-color="accent" id="icon-0"><g fill="#00d1cd" data-fill-palette-color="accent"><g fill="#00d1cd" data-fill-palette-color="accent"><g fill="#00d1cd" data-fill-palette-color="accent"><path d="M48.4 38.1c-0.7 0-1.4-0.3-1.9-0.9-0.9-1-0.7-2.6 0.2-3.5l3.1-3.1c0.3-0.3 0.3-0.7 0-1l-3.1-3.1c-0.9-0.9-1.1-2.4-0.3-3.4 1-1.2 2.7-1.2 3.7-0.2l5.5 5.5c0.5 0.5 0.7 1.1 0.7 1.8 0 0.7-0.3 1.3-0.7 1.8l-5.5 5.5C49.6 37.9 49 38.1 48.4 38.1z" fill="#00d1cd" data-fill-palette-color="accent"></path></g><g fill="#00d1cd" data-fill-palette-color="accent"><path d="M23.6 38.1c-0.6 0-1.3-0.2-1.8-0.7L16.4 32c-0.5-0.5-0.7-1.1-0.7-1.8 0-0.7 0.3-1.3 0.7-1.8l5.4-5.4c0.9-0.9 2.4-1.1 3.4-0.3 1.2 1 1.2 2.7 0.2 3.7l-3.2 3.2c-0.3 0.3-0.3 0.7 0 1l3.1 3.1c0.9 0.9 1.1 2.5 0.2 3.5C25 37.8 24.3 38.1 23.6 38.1z" fill="#00d1cd" data-fill-palette-color="accent"></path></g></g><g fill="#00d1cd" data-fill-palette-color="accent"><path d="M32.7 41.9c-0.3 0-0.6 0-0.8-0.1-1.3-0.5-2-1.9-1.5-3.2l6.6-18.4c0.5-1.3 1.9-2 3.2-1.5 1.3 0.5 2 1.9 1.5 3.2l-6.6 18.4C34.7 41.2 33.7 41.9 32.7 41.9z" fill="#00d1cd" data-fill-palette-color="accent"></path></g><g fill="#00d1cd" data-fill-palette-color="accent"><path d="M69.8 0.5H2.2c-0.9 0-1.7 0.8-1.7 1.7v67.6c0 0.9 0.8 1.7 1.7 1.7h67.6c0.9 0 1.7-0.8 1.7-1.7V2.2C71.5 1.3 70.7 0.5 69.8 0.5zM25 4.5c1.2 0 2.1 0.9 2.1 2.1 0 1.2-0.9 2.1-2.1 2.1-1.2 0-2.1-0.9-2.1-2.1C22.9 5.4 23.8 4.5 25 4.5zM16.1 4.5c1.2 0 2.1 0.9 2.1 2.1 0 1.2-0.9 2.1-2.1 2.1C15 8.7 14 7.8 14 6.6 14 5.4 15 4.5 16.1 4.5zM7.3 4.5c1.2 0 2.1 0.9 2.1 2.1 0 1.2-0.9 2.1-2.1 2.1S5.2 7.8 5.2 6.6C5.2 5.4 6.1 4.5 7.3 4.5zM5.5 64.8V16.5c0-0.9 0.8-1.7 1.7-1.7h57.6c0.9 0 1.7 0.8 1.7 1.7V46c-0.1 0-0.1-0.1-0.2-0.1-0.4-0.1-0.6-0.5-0.6-0.8v-3.5c0-0.5-0.4-0.9-0.9-0.9H59c-0.5 0-0.9 0.4-0.9 0.9v3.5c0 0.4-0.3 0.7-0.6 0.8-0.8 0.2-1.5 0.6-2.2 0.9-0.3 0.2-0.8 0.1-1-0.1L52 44.5c-0.6-0.6-1.1-0.6-1.5-0.2l-4.1 4.1c-0.4 0.4-0.4 0.9 0 1.3l2.4 2.4c0.3 0.3 0.3 0.7 0.2 1-0.4 0.7-0.7 1.5-0.9 2.2C48 55.7 47.6 56 47.2 56l-3.5 0c-0.5 0-0.9 0.4-0.9 0.9v5.8c0 0.5 0.4 0.9 0.9 0.9h3.5c0.4 0 0.7 0.3 0.8 0.6 0.1 0.4 0.3 0.9 0.5 1.3 0.2 0.5-0.2 1.1-0.7 1.1H7.2C6.3 66.5 5.5 65.7 5.5 64.8zM64.8 66.5h-8.4c-0.3 0-0.6-0.1-0.8-0.3-1.9-1.9-3-4.7-2.6-7.7 0.5-3.9 3.7-7.1 7.6-7.7 2.2-0.3 4.3 0.1 6 1.2v12.8C66.5 65.7 65.7 66.5 64.8 66.5z" fill="#00d1cd" data-fill-palette-color="accent"></path></g></g></svg></g></svg></g></svg></g></svg></g></svg></g><g></g></svg></g></svg></g><g></g></svg></g><defs></defs></svg><rect width="154.5" height="154.5" fill="none" stroke="none" visibility="hidden"></rect></g></svg></g></svg>